<svg xmlns="http://www.w3.org/2000/svg" viewBox="0 0 1400 2510" font-family="ui-monospace, 'JetBrains Mono', SFMono-Regular, Menlo, monospace">
  <defs>
    <marker id="arrow" viewBox="0 0 10 10" refX="9" refY="5" markerWidth="7" markerHeight="7" orient="auto-start-reverse">
      <path d="M 0 0 L 10 5 L 0 10 z" fill="#737373"/>
    </marker>
    <marker id="arrow-y" viewBox="0 0 10 10" refX="9" refY="5" markerWidth="7" markerHeight="7" orient="auto-start-reverse">
      <path d="M 0 0 L 10 5 L 0 10 z" fill="#facc15"/>
    </marker>
  </defs>

  <rect width="1400" height="2510" fill="#0a0a0a"/>

  <!-- ============ HEADER ============ -->
  <text x="40" y="50" fill="#e5e5e5" font-size="22" font-weight="700">Claude Code Agent Teams — Architecture</text>
  <text x="40" y="74" fill="#737373" font-size="12">v1 design + G1–G5 patches + §3.4 hierarchy framing  ·  trading-bot project-scope extension  ·  post-impl refinements 2026-05-14 PM (silence-breaker, inbox-path, DM plan-approval, forced-close)</text>

  <!-- ============ PANEL 1 :  FILESYSTEM & SCOPE ============ -->
  <text x="40" y="124" fill="#facc15" font-size="13" font-weight="600" letter-spacing="1">PANEL 1   ·   FILESYSTEM &amp; ROLE RESOLUTION</text>
  <line x1="40" y1="134" x2="1360" y2="134" stroke="#1f1f1f"/>

  <!-- USER-GLOBAL block -->
  <g transform="translate(40,154)">
    <rect width="640" height="420" fill="#0f0f0f" stroke="#262626"/>
    <text x="18" y="28" fill="#e5e5e5" font-size="13" font-weight="600">~/.claude/   user-global library</text>
    <text x="18" y="46" fill="#737373" font-size="10">portable across all projects · single source of truth</text>

    <rect x="18" y="62" width="290" height="200" fill="none" stroke="#1f1f1f"/>
    <text x="32" y="82" fill="#e5e5e5" font-size="11" font-weight="600">agents/</text>
    <text x="32" y="98" fill="#737373" font-size="10">10 reusable roles · 1 file each</text>
    <text x="32" y="124" fill="#e5e5e5" font-size="10">researcher    scout      synthesizer</text>
    <text x="32" y="140" fill="#e5e5e5" font-size="10">defender      skeptic    diverger</text>
    <text x="32" y="156" fill="#e5e5e5" font-size="10">critic        designer   builder</text>
    <text x="32" y="172" fill="#e5e5e5" font-size="10">verifier</text>
    <text x="32" y="200" fill="#737373" font-size="9">used as standalone subagent</text>
    <text x="32" y="214" fill="#737373" font-size="9">OR teammate · same file, no duplication</text>
    <text x="32" y="238" fill="#737373" font-size="9">tools/model apply · skills+mcpServers</text>
    <text x="32" y="252" fill="#737373" font-size="9">silently IGNORED in team mode</text>

    <rect x="318" y="62" width="304" height="200" fill="none" stroke="#1f1f1f"/>
    <text x="332" y="82" fill="#e5e5e5" font-size="11" font-weight="600">agent-team-templates/   NEW</text>
    <text x="332" y="100" fill="#737373" font-size="10">README.md   operator entrypoint</text>
    <text x="332" y="114" fill="#737373" font-size="10">PLAYBOOK.md lead algorithm</text>
    <text x="332" y="136" fill="#e5e5e5" font-size="10">teams/</text>
    <text x="344" y="152" fill="#e5e5e5" font-size="10">research.md       parallel-then-sync</text>
    <text x="344" y="166" fill="#e5e5e5" font-size="10">debate.md         position-then-engage</text>
    <text x="344" y="180" fill="#e5e5e5" font-size="10">brainstorm.md     diverge→critique→converge</text>
    <text x="344" y="194" fill="#e5e5e5" font-size="10">design-review.md  sequential+critique-loop</text>
    <text x="344" y="208" fill="#e5e5e5" font-size="10">improvement.md    pipeline+verify-handoff</text>
    <text x="332" y="236" fill="#737373" font-size="9">lead Read-s template at invoke time</text>
    <text x="332" y="250" fill="#737373" font-size="9">Claude Code itself does not parse</text>

    <rect x="18" y="276" width="604" height="120" fill="none" stroke="#1f1f1f"/>
    <text x="32" y="296" fill="#e5e5e5" font-size="11" font-weight="600">teams/   active runtime state</text>
    <text x="32" y="312" fill="#737373" font-size="10">auto-managed by Claude Code on TeamCreate()</text>
    <text x="32" y="334" fill="#e5e5e5" font-size="10">~/.claude/teams/&lt;team&gt;/config.json</text>
    <text x="48" y="348" fill="#737373" font-size="9">members[] · session IDs · tmux pane IDs</text>
    <text x="32" y="368" fill="#e5e5e5" font-size="10">~/.claude/tasks/&lt;team&gt;/</text>
    <text x="48" y="382" fill="#737373" font-size="9">task store · mtime polled for idle detection</text>

    <text x="18" y="412" fill="#facc15" font-size="10">NEVER hand-edit · overwritten on every state update</text>
  </g>

  <!-- PROJECT block -->
  <g transform="translate(720,154)">
    <rect width="640" height="420" fill="#0f0f0f" stroke="#262626"/>
    <text x="18" y="28" fill="#e5e5e5" font-size="13" font-weight="600">&lt;project&gt;/.claude/   per-project</text>
    <text x="18" y="46" fill="#737373" font-size="10">e.g. /home/saijayanthai/Documents/trading-bot/.claude/</text>

    <rect x="18" y="62" width="604" height="156" fill="none" stroke="#facc15" stroke-width="1.5"/>
    <text x="32" y="82" fill="#facc15" font-size="11" font-weight="600">agents/   PROJECT-SCOPE OVERRIDE   [G3 patch]</text>
    <text x="32" y="100" fill="#737373" font-size="10">resolution order: project ▸ user ▸ plugin ▸ CLI-defined</text>
    <text x="32" y="126" fill="#e5e5e5" font-size="10">trading-bot/.claude/agents/</text>
    <text x="48" y="142" fill="#e5e5e5" font-size="10">tft-validator.md         scout variant · quanta_core layout</text>
    <text x="48" y="156" fill="#e5e5e5" font-size="10">regime-debugger.md       skeptic variant · meta_up_regime cfg</text>
    <text x="48" y="170" fill="#e5e5e5" font-size="10">v4-parity-checker.md     verifier variant · parity oracle</text>
    <text x="48" y="184" fill="#e5e5e5" font-size="10">cron-auditor.md          scout variant · 9 cron jobs</text>
    <text x="48" y="198" fill="#e5e5e5" font-size="10">dashboard-smoke-tester.md verifier · /api/v4/* + /api/ops/*</text>

    <rect x="18" y="232" width="604" height="172" fill="none" stroke="#1f1f1f"/>
    <text x="32" y="252" fill="#e5e5e5" font-size="11" font-weight="600">agent-team-runs/   archived output  (gitignored default)</text>
    <text x="32" y="274" fill="#e5e5e5" font-size="10">2026-05-14T10-45_debate_rg-wiring/</text>
    <text x="48" y="290" fill="#737373" font-size="10">manifest.json        template · members · limits · token tally [G5]</text>
    <text x="48" y="304" fill="#737373" font-size="10">summary.md           lead's synthesis · the deliverable</text>
    <text x="48" y="318" fill="#737373" font-size="10">members/&lt;role&gt;.md   each teammate's final position</text>
    <text x="48" y="332" fill="#737373" font-size="10">comms/transcript.md  full DM log</text>
    <text x="32" y="358" fill="#e5e5e5" font-size="10">CLAUDE.md auto-loaded by every teammate   [G4 note]</text>
    <text x="32" y="372" fill="#737373" font-size="9">→ MEMORY.md pointers carry through · project context preserved</text>
    <text x="32" y="392" fill="#737373" font-size="9">backup: include in ~/Documents/setup/backups/trading-bot/</text>
  </g>

  <path d="M 720,234 C 690,234 690,164 680,164" stroke="#facc15" stroke-width="1.2" fill="none" marker-end="url(#arrow-y)"/>
  <text x="685" y="200" fill="#facc15" font-size="9" text-anchor="end">fallback</text>

  <!-- ============ PANEL 2 :  INVOCATION LIFECYCLE ============ -->
  <text x="40" y="618" fill="#facc15" font-size="13" font-weight="600" letter-spacing="1">PANEL 2   ·   INVOCATION LIFECYCLE  (operator says "run the debate team on X")</text>
  <line x1="40" y1="628" x2="1360" y2="628" stroke="#1f1f1f"/>

  <g transform="translate(40,654)">
    <g>
      <rect x="0" y="0" width="206" height="148" fill="#0f0f0f" stroke="#262626"/>
      <text x="14" y="22" fill="#facc15" font-size="10" font-weight="600">STAGE 1</text>
      <text x="14" y="40" fill="#e5e5e5" font-size="11" font-weight="600">resolve</text>
      <line x1="14" y1="48" x2="192" y2="48" stroke="#1f1f1f"/>
      <text x="14" y="66" fill="#737373" font-size="9">Read template .md</text>
      <text x="14" y="80" fill="#737373" font-size="9">parse frontmatter</text>
      <text x="14" y="94" fill="#737373" font-size="9">verify roles exist</text>
      <text x="14" y="108" fill="#737373" font-size="9">resolve project ▸ user</text>
      <text x="14" y="122" fill="#737373" font-size="9">AskUserQuestion if</text>
      <text x="14" y="136" fill="#737373" font-size="9">count range (e.g. 3-5)</text>
    </g>
    <path d="M 210,74 L 232,74" stroke="#737373" marker-end="url(#arrow)"/>

    <g transform="translate(236,0)">
      <rect x="0" y="0" width="206" height="148" fill="#0f0f0f" stroke="#262626"/>
      <text x="14" y="22" fill="#facc15" font-size="10" font-weight="600">STAGE 2</text>
      <text x="14" y="40" fill="#e5e5e5" font-size="11" font-weight="600">create team + tasks</text>
      <line x1="14" y1="48" x2="192" y2="48" stroke="#1f1f1f"/>
      <text x="14" y="66" fill="#737373" font-size="9">TeamCreate(name)</text>
      <text x="14" y="80" fill="#737373" font-size="9">TaskCreate per member</text>
      <text x="14" y="94" fill="#737373" font-size="9">+ dependencies  [G2]</text>
      <text x="14" y="108" fill="#737373" font-size="9">scout → builder → verify</text>
      <text x="14" y="122" fill="#737373" font-size="9">native dep chain in</text>
      <text x="14" y="136" fill="#737373" font-size="9">pipeline patterns</text>
    </g>
    <path d="M 446,74 L 468,74" stroke="#737373" marker-end="url(#arrow)"/>

    <g transform="translate(472,0)">
      <rect x="0" y="0" width="206" height="148" fill="#0f0f0f" stroke="#262626"/>
      <text x="14" y="22" fill="#facc15" font-size="10" font-weight="600">STAGE 3</text>
      <text x="14" y="40" fill="#e5e5e5" font-size="11" font-weight="600">spawn teammates</text>
      <line x1="14" y1="48" x2="192" y2="48" stroke="#1f1f1f"/>
      <text x="14" y="66" fill="#e5e5e5" font-size="9">Agent(</text>
      <text x="14" y="80" fill="#e5e5e5" font-size="9">  subagent_type=role,</text>
      <text x="14" y="94" fill="#facc15" font-size="9">  team_name=&lt;team&gt;,</text>
      <text x="14" y="108" fill="#facc15" font-size="9">  name=&lt;role&gt;,</text>
      <text x="14" y="122" fill="#e5e5e5" font-size="9">  prompt=...)</text>
      <text x="14" y="138" fill="#737373" font-size="9">both keys = live member</text>
    </g>
    <path d="M 682,74 L 704,74" stroke="#737373" marker-end="url(#arrow)"/>

    <g transform="translate(708,0)">
      <rect x="0" y="0" width="206" height="148" fill="#0f0f0f" stroke="#262626"/>
      <text x="14" y="22" fill="#facc15" font-size="10" font-weight="600">STAGE 4</text>
      <text x="14" y="40" fill="#e5e5e5" font-size="11" font-weight="600">orchestrate pattern</text>
      <line x1="14" y1="48" x2="192" y2="48" stroke="#1f1f1f"/>
      <text x="14" y="66" fill="#737373" font-size="9">enforce kickoff role</text>
      <text x="14" y="80" fill="#737373" font-size="9">count rounds</text>
      <text x="14" y="94" fill="#737373" font-size="9">track inbox silence</text>
      <text x="14" y="108" fill="#737373" font-size="9">judge plan approvals [G1]</text>
      <text x="14" y="122" fill="#737373" font-size="9">circuit breakers:</text>
      <text x="14" y="136" fill="#737373" font-size="9">rounds · wall · silence</text>
    </g>
    <path d="M 918,74 L 940,74" stroke="#737373" marker-end="url(#arrow)"/>

    <g transform="translate(944,0)">
      <rect x="0" y="0" width="206" height="148" fill="#0f0f0f" stroke="#262626"/>
      <text x="14" y="22" fill="#facc15" font-size="10" font-weight="600">STAGE 5</text>
      <text x="14" y="40" fill="#e5e5e5" font-size="11" font-weight="600">collect + archive</text>
      <line x1="14" y1="48" x2="192" y2="48" stroke="#1f1f1f"/>
      <text x="14" y="66" fill="#737373" font-size="9">capture final DMs</text>
      <text x="14" y="80" fill="#737373" font-size="9">mkdir agent-team-runs/</text>
      <text x="14" y="94" fill="#737373" font-size="9">write manifest.json</text>
      <text x="14" y="108" fill="#737373" font-size="9">write summary.md</text>
      <text x="14" y="122" fill="#737373" font-size="9">write members/, comms/</text>
      <text x="14" y="136" fill="#737373" font-size="9">TeamDelete</text>
    </g>
    <path d="M 1154,74 L 1176,74" stroke="#737373" marker-end="url(#arrow)"/>

    <g transform="translate(1180,0)">
      <rect x="0" y="0" width="140" height="148" fill="#0f0f0f" stroke="#262626"/>
      <text x="14" y="22" fill="#facc15" font-size="10" font-weight="600">STAGE 6</text>
      <text x="14" y="40" fill="#e5e5e5" font-size="11" font-weight="600">report</text>
      <line x1="14" y1="48" x2="126" y2="48" stroke="#1f1f1f"/>
      <text x="14" y="66" fill="#737373" font-size="9">inline summary in</text>
      <text x="14" y="80" fill="#737373" font-size="9">main conversation</text>
      <text x="14" y="100" fill="#737373" font-size="9">pointer to archive</text>
      <text x="14" y="120" fill="#737373" font-size="9">path for forensics</text>
    </g>

    <g transform="translate(708,162)">
      <rect x="0" y="0" width="206" height="62" fill="none" stroke="#1f1f1f"/>
      <text x="10" y="18" fill="#facc15" font-size="9" font-weight="600">CIRCUIT BREAKERS</text>
      <text x="10" y="32" fill="#737373" font-size="9">max_rounds            5</text>
      <text x="10" y="44" fill="#737373" font-size="9">max_wall_minutes     15</text>
      <text x="10" y="56" fill="#737373" font-size="9">max_silence_minutes   3</text>
    </g>

    <g transform="translate(472,162)">
      <rect x="0" y="0" width="206" height="62" fill="none" stroke="#1f1f1f"/>
      <text x="10" y="18" fill="#facc15" font-size="9" font-weight="600">SPAWN CORRECTNESS</text>
      <text x="10" y="32" fill="#737373" font-size="9">omit team_name+name →</text>
      <text x="10" y="44" fill="#737373" font-size="9">runs as parallel subagent,</text>
      <text x="10" y="56" fill="#737373" font-size="9">cannot DM. alice/bob bug.</text>
    </g>

    <g transform="translate(944,162)">
      <rect x="0" y="0" width="206" height="62" fill="none" stroke="#1f1f1f"/>
      <text x="10" y="18" fill="#facc15" font-size="9" font-weight="600">G5 · TOKEN TALLY</text>
      <text x="10" y="32" fill="#737373" font-size="9">manifest.json field:</text>
      <text x="10" y="44" fill="#737373" font-size="9">estimated_token_cost</text>
      <text x="10" y="56" fill="#737373" font-size="9">= members × min × rate</text>
    </g>

    <g transform="translate(236,162)">
      <rect x="0" y="0" width="206" height="62" fill="none" stroke="#1f1f1f"/>
      <text x="10" y="18" fill="#facc15" font-size="9" font-weight="600">OPTIONAL HOOKS</text>
      <text x="10" y="32" fill="#737373" font-size="9">TeammateIdle</text>
      <text x="10" y="44" fill="#737373" font-size="9">TaskCreated</text>
      <text x="10" y="56" fill="#737373" font-size="9">TaskCompleted   exit 2 = block</text>
    </g>
  </g>

  <!-- ============ PANEL 3 :  5 COMMUNICATION PATTERNS ============ -->
  <text x="40" y="940" fill="#facc15" font-size="13" font-weight="600" letter-spacing="1">PANEL 3   ·   THE FIVE COMMUNICATION PATTERNS</text>
  <line x1="40" y1="950" x2="1360" y2="950" stroke="#1f1f1f"/>

  <g transform="translate(40,974)">
    <rect width="256" height="320" fill="#0f0f0f" stroke="#262626"/>
    <text x="14" y="24" fill="#e5e5e5" font-size="11" font-weight="600">research</text>
    <text x="14" y="40" fill="#737373" font-size="9">parallel-then-sync</text>
    <line x1="14" y1="50" x2="242" y2="50" stroke="#1f1f1f"/>

    <g transform="translate(0,68)">
      <circle cx="48" cy="20" r="16" fill="none" stroke="#e5e5e5"/>
      <text x="48" y="24" fill="#e5e5e5" font-size="9" text-anchor="middle">R1</text>
      <circle cx="128" cy="20" r="16" fill="none" stroke="#e5e5e5"/>
      <text x="128" y="24" fill="#e5e5e5" font-size="9" text-anchor="middle">R2</text>
      <circle cx="208" cy="20" r="16" fill="none" stroke="#e5e5e5"/>
      <text x="208" y="24" fill="#e5e5e5" font-size="9" text-anchor="middle">R3</text>
      <path d="M 48,36 L 128,84" stroke="#737373" marker-end="url(#arrow)"/>
      <path d="M 128,36 L 128,84" stroke="#737373" marker-end="url(#arrow)"/>
      <path d="M 208,36 L 128,84" stroke="#737373" marker-end="url(#arrow)"/>
      <rect x="108" y="86" width="40" height="28" fill="none" stroke="#facc15"/>
      <text x="128" y="104" fill="#facc15" font-size="9" text-anchor="middle">SYN</text>
      <path d="M 128,114 L 128,148" stroke="#737373" marker-end="url(#arrow)"/>
      <rect x="100" y="150" width="56" height="22" fill="none" stroke="#e5e5e5"/>
      <text x="128" y="166" fill="#e5e5e5" font-size="9" text-anchor="middle">lead</text>
    </g>

    <text x="14" y="262" fill="#737373" font-size="9">3-5 researchers parallel</text>
    <text x="14" y="276" fill="#737373" font-size="9">no inter-talk in scout phase</text>
    <text x="14" y="290" fill="#737373" font-size="9">synth cross-checks tensions</text>
    <text x="14" y="304" fill="#737373" font-size="9">limits  30m / 3 rounds</text>
  </g>

  <g transform="translate(312,974)">
    <rect width="256" height="320" fill="#0f0f0f" stroke="#262626"/>
    <text x="14" y="24" fill="#e5e5e5" font-size="11" font-weight="600">debate</text>
    <text x="14" y="40" fill="#737373" font-size="9">position-then-engage</text>
    <line x1="14" y1="50" x2="242" y2="50" stroke="#1f1f1f"/>

    <g transform="translate(0,72)">
      <rect x="40" y="30" width="60" height="28" fill="none" stroke="#e5e5e5"/>
      <text x="70" y="48" fill="#e5e5e5" font-size="9" text-anchor="middle">defender</text>
      <rect x="156" y="30" width="60" height="28" fill="none" stroke="#facc15"/>
      <text x="186" y="48" fill="#facc15" font-size="9" text-anchor="middle">skeptic</text>
      <text x="186" y="22" fill="#facc15" font-size="8" text-anchor="middle">kickoff</text>
      <path d="M 156,38 L 102,38" stroke="#737373" marker-end="url(#arrow)"/>
      <path d="M 100,52 L 154,52" stroke="#737373" marker-end="url(#arrow)"/>
      <text x="128" y="70" fill="#737373" font-size="8" text-anchor="middle">3-5 rounds</text>

      <path d="M 70,58 L 110,118" stroke="#737373" marker-end="url(#arrow)"/>
      <path d="M 186,58 L 144,118" stroke="#737373" marker-end="url(#arrow)"/>
      <rect x="100" y="120" width="56" height="22" fill="none" stroke="#e5e5e5"/>
      <text x="128" y="136" fill="#e5e5e5" font-size="9" text-anchor="middle">lead = judge</text>
    </g>

    <text x="14" y="262" fill="#737373" font-size="9">yes/no decisions</text>
    <text x="14" y="276" fill="#737373" font-size="9">adversarial pressure</text>
    <text x="14" y="290" fill="#737373" font-size="9">3-5 line DMs · file:line evidence</text>
    <text x="14" y="304" fill="#737373" font-size="9">limits  15m / 5 rounds</text>
  </g>

  <g transform="translate(584,974)">
    <rect width="256" height="320" fill="#0f0f0f" stroke="#262626"/>
    <text x="14" y="24" fill="#e5e5e5" font-size="11" font-weight="600">brainstorm</text>
    <text x="14" y="40" fill="#737373" font-size="9">diverge-critique-converge</text>
    <line x1="14" y1="50" x2="242" y2="50" stroke="#1f1f1f"/>

    <g transform="translate(0,68)">
      <circle cx="48" cy="20" r="14" fill="none" stroke="#e5e5e5"/>
      <text x="48" y="24" fill="#e5e5e5" font-size="9" text-anchor="middle">D1</text>
      <circle cx="128" cy="20" r="14" fill="none" stroke="#e5e5e5"/>
      <text x="128" y="24" fill="#e5e5e5" font-size="9" text-anchor="middle">D2</text>
      <circle cx="208" cy="20" r="14" fill="none" stroke="#e5e5e5"/>
      <text x="208" y="24" fill="#e5e5e5" font-size="9" text-anchor="middle">D3</text>

      <path d="M 48,34 L 120,72" stroke="#737373" marker-end="url(#arrow)"/>
      <path d="M 128,34 L 128,72" stroke="#737373" marker-end="url(#arrow)"/>
      <path d="M 208,34 L 138,72" stroke="#737373" marker-end="url(#arrow)"/>

      <rect x="104" y="74" width="48" height="26" fill="none" stroke="#facc15"/>
      <text x="128" y="91" fill="#facc15" font-size="9" text-anchor="middle">critic</text>
      <path d="M 128,100 L 128,134" stroke="#737373" marker-end="url(#arrow)"/>

      <rect x="104" y="136" width="48" height="26" fill="none" stroke="#facc15"/>
      <text x="128" y="153" fill="#facc15" font-size="9" text-anchor="middle">synth</text>
      <path d="M 128,162 L 128,194" stroke="#737373" marker-end="url(#arrow)"/>
      <rect x="100" y="196" width="56" height="22" fill="none" stroke="#e5e5e5"/>
      <text x="128" y="212" fill="#e5e5e5" font-size="9" text-anchor="middle">lead</text>
    </g>

    <text x="14" y="262" fill="#737373" font-size="9">3 divergers · 5-10 ideas each</text>
    <text x="14" y="276" fill="#737373" font-size="9">critic kills bad → divergers</text>
    <text x="14" y="290" fill="#737373" font-size="9">push back once · synth ranks</text>
    <text x="14" y="304" fill="#737373" font-size="9">limits  20m / 2 rounds</text>
  </g>

  <g transform="translate(856,974)">
    <rect width="256" height="320" fill="#0f0f0f" stroke="#262626"/>
    <text x="14" y="24" fill="#e5e5e5" font-size="11" font-weight="600">design-review</text>
    <text x="14" y="40" fill="#737373" font-size="9">sequential + critique-loop</text>
    <line x1="14" y1="50" x2="242" y2="50" stroke="#1f1f1f"/>

    <g transform="translate(0,72)">
      <rect x="100" y="0" width="56" height="22" fill="none" stroke="#e5e5e5"/>
      <text x="128" y="16" fill="#e5e5e5" font-size="9" text-anchor="middle">scout</text>
      <path d="M 128,22 L 128,48" stroke="#737373" marker-end="url(#arrow)"/>
      <rect x="100" y="50" width="56" height="22" fill="none" stroke="#e5e5e5"/>
      <text x="128" y="66" fill="#e5e5e5" font-size="9" text-anchor="middle">designer</text>

      <path d="M 156,61 L 192,61" stroke="#737373" marker-end="url(#arrow)"/>
      <rect x="194" y="50" width="50" height="22" fill="none" stroke="#facc15"/>
      <text x="219" y="66" fill="#facc15" font-size="9" text-anchor="middle">critic</text>
      <path d="M 194,72 C 170,90 160,90 156,72" stroke="#facc15" stroke-dasharray="2 2" fill="none" marker-end="url(#arrow-y)"/>
      <text x="183" y="98" fill="#facc15" font-size="8" text-anchor="middle">1-2 loops</text>

      <path d="M 128,72 L 128,134" stroke="#737373" marker-end="url(#arrow)"/>
      <rect x="100" y="136" width="56" height="22" fill="none" stroke="#e5e5e5"/>
      <text x="128" y="152" fill="#e5e5e5" font-size="9" text-anchor="middle">lead</text>
    </g>

    <text x="14" y="262" fill="#737373" font-size="9">scout maps state · designer</text>
    <text x="14" y="276" fill="#737373" font-size="9">proposes · critic loops back</text>
    <text x="14" y="290" fill="#737373" font-size="9">plan-approval recommended  [G1]</text>
    <text x="14" y="304" fill="#737373" font-size="9">limits  25m / 2 rounds</text>
  </g>

  <g transform="translate(1128,974)">
    <rect width="232" height="320" fill="#0f0f0f" stroke="#262626"/>
    <text x="14" y="24" fill="#e5e5e5" font-size="11" font-weight="600">improvement</text>
    <text x="14" y="40" fill="#737373" font-size="9">pipeline + verify-handoff</text>
    <line x1="14" y1="50" x2="218" y2="50" stroke="#1f1f1f"/>

    <g transform="translate(0,72)">
      <rect x="88" y="0" width="56" height="22" fill="none" stroke="#e5e5e5"/>
      <text x="116" y="16" fill="#e5e5e5" font-size="9" text-anchor="middle">scout</text>
      <path d="M 116,22 L 116,46" stroke="#facc15" marker-end="url(#arrow-y)"/>
      <text x="146" y="38" fill="#facc15" font-size="8">dep [G2]</text>

      <rect x="88" y="48" width="56" height="22" fill="none" stroke="#e5e5e5"/>
      <text x="116" y="64" fill="#e5e5e5" font-size="9" text-anchor="middle">builder</text>
      <path d="M 116,70 L 116,94" stroke="#facc15" marker-end="url(#arrow-y)"/>

      <rect x="88" y="96" width="56" height="22" fill="none" stroke="#facc15"/>
      <text x="116" y="112" fill="#facc15" font-size="9" text-anchor="middle">verifier</text>
      <path d="M 88,107 C 50,107 50,60 86,60" stroke="#facc15" stroke-dasharray="2 2" fill="none" marker-end="url(#arrow-y)"/>
      <text x="46" y="86" fill="#facc15" font-size="8" text-anchor="middle">fail → fix</text>

      <path d="M 116,118 L 116,150" stroke="#737373" marker-end="url(#arrow)"/>
      <rect x="88" y="152" width="56" height="22" fill="none" stroke="#e5e5e5"/>
      <text x="116" y="168" fill="#e5e5e5" font-size="9" text-anchor="middle">lead</text>
    </g>

    <text x="14" y="262" fill="#737373" font-size="9">native task deps · self-claim</text>
    <text x="14" y="276" fill="#737373" font-size="9">builder iterates until verify OK</text>
    <text x="14" y="290" fill="#737373" font-size="9">plan-approval REQUIRED  [G1]</text>
    <text x="14" y="304" fill="#737373" font-size="9">limits  60m / 10 rounds</text>
  </g>

  <!-- ============ PANEL 4 :  ROADMAP ============ -->
  <text x="40" y="1340" fill="#facc15" font-size="13" font-weight="600" letter-spacing="1">PANEL 4   ·   ROADMAP   project ▸ system</text>
  <line x1="40" y1="1350" x2="1360" y2="1350" stroke="#1f1f1f"/>

  <g transform="translate(40,1374)">
    <rect x="0" y="0" width="320" height="500" fill="#0f0f0f" stroke="#262626"/>
    <text x="16" y="26" fill="#facc15" font-size="11" font-weight="600">PHASE A   v1 ship</text>
    <text x="16" y="42" fill="#737373" font-size="9">≈ 7-8 h focused</text>
    <line x1="16" y1="52" x2="304" y2="52" stroke="#1f1f1f"/>
    <text x="16" y="74" fill="#e5e5e5" font-size="10">1  skeleton  README + PLAYBOOK</text>
    <text x="16" y="94" fill="#e5e5e5" font-size="10">2  10 roles  ~/.claude/agents/</text>
    <text x="16" y="114" fill="#e5e5e5" font-size="10">3  5 templates  teams/*.md</text>
    <text x="16" y="134" fill="#e5e5e5" font-size="10">4  PLAYBOOK  6 stages × 5 patterns</text>
    <text x="16" y="154" fill="#e5e5e5" font-size="10">5  README  pre-flight + caveats</text>
    <text x="16" y="174" fill="#e5e5e5" font-size="10">6  live smoke-test each team</text>
    <line x1="16" y1="194" x2="304" y2="194" stroke="#1f1f1f"/>
    <text x="16" y="216" fill="#facc15" font-size="10" font-weight="600">PATCHES IN-SCOPE</text>
    <text x="16" y="234" fill="#737373" font-size="9">G1  plan-approval criteria · per template</text>
    <text x="16" y="252" fill="#737373" font-size="9">G2  native task deps for pipeline</text>
    <text x="16" y="270" fill="#737373" font-size="9">G3  project-scope role override</text>
    <text x="16" y="288" fill="#737373" font-size="9">G4  CLAUDE.md propagation note</text>
    <text x="16" y="306" fill="#737373" font-size="9">G5  token tally placeholder field</text>
    <text x="16" y="324" fill="#737373" font-size="9">+   fix appendix B typo (alice→defender)</text>
    <line x1="16" y1="344" x2="304" y2="344" stroke="#1f1f1f"/>
    <text x="16" y="366" fill="#facc15" font-size="10" font-weight="600">PRE-FLIGHT (1×)</text>
    <text x="16" y="384" fill="#737373" font-size="9">claude --version ≥ v2.1.32</text>
    <text x="16" y="402" fill="#737373" font-size="9">env CLAUDE_CODE_EXPERIMENTAL_AGENT_TEAMS=1</text>
    <text x="16" y="420" fill="#737373" font-size="9">teammateMode: in-process</text>
    <text x="16" y="438" fill="#737373" font-size="9">/config → Default teammate model</text>
    <text x="16" y="456" fill="#737373" font-size="9">  → Default (leader's model)</text>
    <text x="16" y="474" fill="#737373" font-size="9">pre-approve Read/Glob/Grep · Bash(ls/cat/grep)</text>

    <rect x="340" y="0" width="320" height="500" fill="#0f0f0f" stroke="#262626"/>
    <text x="356" y="26" fill="#facc15" font-size="11" font-weight="600">PHASE B   trading-bot</text>
    <text x="356" y="42" fill="#737373" font-size="9">≈ 3-4 h · uses G3</text>
    <line x1="356" y1="52" x2="644" y2="52" stroke="#1f1f1f"/>
    <text x="356" y="74" fill="#e5e5e5" font-size="10">project-scope roles</text>
    <text x="356" y="94" fill="#737373" font-size="9">trading-bot/.claude/agents/</text>
    <text x="372" y="110" fill="#737373" font-size="9">tft-validator        scout variant</text>
    <text x="372" y="124" fill="#737373" font-size="9">regime-debugger      skeptic variant</text>
    <text x="372" y="138" fill="#737373" font-size="9">v4-parity-checker    verifier · oracle</text>
    <text x="372" y="152" fill="#737373" font-size="9">cron-auditor         scout · 9 jobs</text>
    <text x="372" y="166" fill="#737373" font-size="9">dashboard-smoke      verifier · v4/ops</text>
    <line x1="356" y1="186" x2="644" y2="186" stroke="#1f1f1f"/>
    <text x="356" y="208" fill="#e5e5e5" font-size="10">project-scope templates</text>
    <text x="356" y="226" fill="#737373" font-size="9">morning-state-audit  parallel-then-sync</text>
    <text x="372" y="240" fill="#737373" font-size="9">→ formalize 2026-05-12 MORNING-STATE</text>
    <text x="356" y="258" fill="#737373" font-size="9">tft-retrain-decision debate</text>
    <text x="372" y="272" fill="#737373" font-size="9">→ defend val_sharpe vs retrain-now</text>
    <text x="356" y="290" fill="#737373" font-size="9">pre-cutover-verify   design-review</text>
    <text x="372" y="304" fill="#737373" font-size="9">→ V4 additive cutover steps</text>
    <line x1="356" y1="322" x2="644" y2="322" stroke="#1f1f1f"/>
    <text x="356" y="344" fill="#e5e5e5" font-size="10">infra</text>
    <text x="356" y="362" fill="#737373" font-size="9">add agent-team-runs/ to backup includes</text>
    <text x="356" y="380" fill="#737373" font-size="9">.gitignore default · -f to preserve</text>
    <text x="356" y="398" fill="#737373" font-size="9">TaskCompleted hook → pytest quanta_core</text>
    <text x="356" y="416" fill="#737373" font-size="9">quality gate for improvement team</text>

    <rect x="680" y="0" width="320" height="500" fill="#0f0f0f" stroke="#262626"/>
    <text x="696" y="26" fill="#facc15" font-size="11" font-weight="600">PHASE C   system polish</text>
    <text x="696" y="42" fill="#737373" font-size="9">≈ 2-3 h</text>
    <line x1="696" y1="52" x2="984" y2="52" stroke="#1f1f1f"/>
    <text x="696" y="74" fill="#e5e5e5" font-size="10">/team slash skill</text>
    <text x="696" y="92" fill="#737373" font-size="9">~30 lines · invoke template by name</text>
    <text x="696" y="110" fill="#737373" font-size="9">eliminates natural-language guessing</text>
    <line x1="696" y1="128" x2="984" y2="128" stroke="#1f1f1f"/>
    <text x="696" y="150" fill="#e5e5e5" font-size="10">out-of-tree history index</text>
    <text x="696" y="168" fill="#737373" font-size="9">~/.claude/agent-team-history/index.json</text>
    <text x="696" y="186" fill="#737373" font-size="9">append on every run · grep-able</text>
    <line x1="696" y1="204" x2="984" y2="204" stroke="#1f1f1f"/>
    <text x="696" y="226" fill="#e5e5e5" font-size="10">setup folder mirror</text>
    <text x="696" y="244" fill="#737373" font-size="9">~/Documents/setup/agent-teams/</text>
    <text x="696" y="262" fill="#737373" font-size="9">sanitized backup · helper scripts</text>
    <text x="696" y="280" fill="#737373" font-size="9">parallels Hermes setup pattern</text>
    <line x1="696" y1="298" x2="984" y2="298" stroke="#1f1f1f"/>
    <text x="696" y="320" fill="#e5e5e5" font-size="10">README documents overlap</text>
    <text x="696" y="338" fill="#737373" font-size="9">improvement     ↔  superpowers:executing-plans</text>
    <text x="696" y="356" fill="#737373" font-size="9">design-review   ↔  superpowers:writing-plans</text>
    <text x="696" y="374" fill="#737373" font-size="9">debate          ↔  systematic-debugging</text>
    <text x="696" y="392" fill="#737373" font-size="9">operator picks the right tool</text>

    <rect x="1020" y="0" width="300" height="500" fill="#0f0f0f" stroke="#262626"/>
    <text x="1036" y="26" fill="#facc15" font-size="11" font-weight="600">PHASE D   deferred</text>
    <text x="1036" y="42" fill="#737373" font-size="9">only if A-C prove value</text>
    <line x1="1036" y1="52" x2="1304" y2="52" stroke="#1f1f1f"/>
    <text x="1036" y="74" fill="#e5e5e5" font-size="10">Hermes cron → team trigger</text>
    <text x="1036" y="92" fill="#737373" font-size="9">wrap invocation in cron script</text>
    <text x="1036" y="110" fill="#737373" font-size="9">reuse gpu_gate.sh pattern</text>
    <text x="1036" y="128" fill="#737373" font-size="9">e.g. weekly tft-retrain-decision</text>
    <line x1="1036" y1="146" x2="1304" y2="146" stroke="#1f1f1f"/>
    <text x="1036" y="168" fill="#e5e5e5" font-size="10">dashboard card</text>
    <text x="1036" y="186" fill="#737373" font-size="9">surface latest run + verdict</text>
    <text x="1036" y="204" fill="#737373" font-size="9">links to agent-team-runs/</text>
    <line x1="1036" y1="222" x2="1304" y2="222" stroke="#1f1f1f"/>
    <text x="1036" y="244" fill="#e5e5e5" font-size="10">template chaining</text>
    <text x="1036" y="262" fill="#737373" font-size="9">research → design-review</text>
    <text x="1036" y="280" fill="#737373" font-size="9">    → improvement</text>
    <text x="1036" y="298" fill="#737373" font-size="9">single super-flow per spec §16</text>
    <line x1="1036" y1="316" x2="1304" y2="316" stroke="#1f1f1f"/>
    <text x="1036" y="338" fill="#e5e5e5" font-size="10">cost budgets per team</text>
    <text x="1036" y="356" fill="#737373" font-size="9">hard cap on tokens spent</text>
    <text x="1036" y="374" fill="#737373" font-size="9">aligns with cost-averse stance</text>
    <text x="1036" y="392" fill="#737373" font-size="9">(anthropic routing rollback)</text>
  </g>

  <!-- ============ PANEL 5 :  MENTAL MODEL — THE HIERARCHY ============ -->
  <text x="40" y="1920" fill="#facc15" font-size="13" font-weight="600" letter-spacing="1">PANEL 5   ·   MENTAL MODEL — THE HIERARCHY IS ALREADY THERE  (§3.4)</text>
  <line x1="40" y1="1930" x2="1360" y2="1930" stroke="#1f1f1f"/>

  <g transform="translate(40,1956)">
    <!-- Product Owner -->
    <rect x="0" y="0" width="420" height="190" fill="#0f0f0f" stroke="#262626"/>
    <text x="16" y="26" fill="#facc15" font-size="11" font-weight="600">PRODUCT OWNER</text>
    <text x="16" y="42" fill="#737373" font-size="10">= the operator (you)</text>
    <line x1="16" y1="52" x2="404" y2="52" stroke="#1f1f1f"/>
    <text x="16" y="74" fill="#e5e5e5" font-size="10">sets goals</text>
    <text x="16" y="92" fill="#e5e5e5" font-size="10">picks the template</text>
    <text x="16" y="110" fill="#e5e5e5" font-size="10">accepts or rejects deliverable</text>
    <text x="16" y="128" fill="#e5e5e5" font-size="10">decides what's next</text>
    <line x1="16" y1="142" x2="404" y2="142" stroke="#1f1f1f"/>
    <text x="16" y="160" fill="#737373" font-size="9">never delegates: scope, verdict acceptance,</text>
    <text x="16" y="174" fill="#737373" font-size="9">cost tolerance, next-step decisions</text>

    <!-- arrow PO → TL -->
    <path d="M 422,95 L 458,95" stroke="#facc15" stroke-width="1.5" marker-end="url(#arrow-y)"/>
    <text x="440" y="86" fill="#facc15" font-size="9" text-anchor="middle">"run X team on Y"</text>
    <path d="M 458,108 L 422,108" stroke="#facc15" stroke-width="1.5" stroke-dasharray="2 2" marker-end="url(#arrow-y)"/>
    <text x="440" y="128" fill="#facc15" font-size="9" text-anchor="middle">summary.md + verdict</text>

    <!-- Tech Lead -->
    <rect x="460" y="0" width="420" height="190" fill="#0f0f0f" stroke="#facc15" stroke-width="1.2"/>
    <text x="476" y="26" fill="#facc15" font-size="11" font-weight="600">TECH LEAD</text>
    <text x="476" y="42" fill="#737373" font-size="10">= main Claude session (= team-lead in code)</text>
    <line x1="476" y1="52" x2="864" y2="52" stroke="#1f1f1f"/>
    <text x="476" y="74" fill="#e5e5e5" font-size="10">translates goal → team plan</text>
    <text x="476" y="92" fill="#e5e5e5" font-size="10">spawns teammates with correct keys</text>
    <text x="476" y="110" fill="#e5e5e5" font-size="10">judges plan approvals  [G1]</text>
    <text x="476" y="128" fill="#e5e5e5" font-size="10">enforces 3 circuit breakers</text>
    <line x1="476" y1="142" x2="864" y2="142" stroke="#1f1f1f"/>
    <text x="476" y="160" fill="#737373" font-size="9">writes manifest.json + summary.md</text>
    <text x="476" y="174" fill="#737373" font-size="9">NOT a thin task-router · synthesizes outputs</text>

    <!-- arrow TL → Devs -->
    <path d="M 882,95 L 918,95" stroke="#facc15" stroke-width="1.5" marker-end="url(#arrow-y)"/>
    <text x="900" y="86" fill="#facc15" font-size="9" text-anchor="middle">Agent(team_name, name)</text>
    <path d="M 918,108 L 882,108" stroke="#facc15" stroke-width="1.5" stroke-dasharray="2 2" marker-end="url(#arrow-y)"/>
    <text x="900" y="128" fill="#facc15" font-size="9" text-anchor="middle">SendMessage(to=team-lead)</text>

    <!-- Developers -->
    <rect x="920" y="0" width="400" height="190" fill="#0f0f0f" stroke="#262626"/>
    <text x="936" y="26" fill="#facc15" font-size="11" font-weight="600">DEVELOPERS</text>
    <text x="936" y="42" fill="#737373" font-size="10">= spawned teammates (1-5 per team)</text>
    <line x1="936" y1="52" x2="1304" y2="52" stroke="#1f1f1f"/>
    <text x="936" y="74" fill="#e5e5e5" font-size="10">execute focused, scoped tasks</text>
    <text x="936" y="92" fill="#e5e5e5" font-size="10">DM each other via SendMessage</text>
    <text x="936" y="110" fill="#e5e5e5" font-size="10">update shared task list (claim/complete)</text>
    <text x="936" y="128" fill="#e5e5e5" font-size="10">tools/model from role file</text>
    <line x1="936" y1="142" x2="1304" y2="142" stroke="#1f1f1f"/>
    <text x="936" y="160" fill="#737373" font-size="9">independent context window each</text>
    <text x="936" y="174" fill="#737373" font-size="9">inherit lead's permissions at spawn</text>
  </g>

  <g transform="translate(40,2170)">
    <text x="0" y="0" fill="#facc15" font-size="10" font-weight="600">WHY THIS MATTERS</text>
    <text x="0" y="16" fill="#737373" font-size="10">Pure doc framing. No new code, no new role file, no new architectural layer. The PO ↔ tech-lead handoff is where your intent ends and Claude's autonomy begins —</text>
    <text x="0" y="30" fill="#737373" font-size="10">the moment you say "run the X team on Y" and the lead takes over until it hands you back a summary.md. "Team lead" is the implementation term, "tech lead" the mental model.</text>
  </g>

  <!-- ============ PANEL 6 :  HOW THE OPERATOR INVOKES A TEAM ============ -->
  <text x="40" y="2230" fill="#facc15" font-size="13" font-weight="600" letter-spacing="1">PANEL 6   ·   HOW TO INVOKE A TEAM  (getting the lead to follow PLAYBOOK.md)</text>
  <line x1="40" y1="2240" x2="1360" y2="2240" stroke="#1f1f1f"/>

  <text x="40" y="2262" fill="#737373" font-size="11">Claude Code itself does not auto-load PLAYBOOK.md when you say "run the X team". One of the three options below must be in place, or the lead will improvise.</text>

  <!-- OPTION A — Project CLAUDE.md pointer (RECOMMENDED) -->
  <g transform="translate(40,2284)">
    <rect width="430" height="206" fill="#0f0f0f" stroke="#facc15" stroke-width="1.2"/>
    <text x="16" y="24" fill="#facc15" font-size="11" font-weight="600">OPTION A · CLAUDE.md POINTER   recommended</text>
    <text x="16" y="40" fill="#737373" font-size="10">works today · project-scoped · zero friction at invoke</text>
    <line x1="16" y1="50" x2="414" y2="50" stroke="#1f1f1f"/>

    <text x="16" y="70" fill="#e5e5e5" font-size="10" font-weight="600">setup (once per project):</text>
    <text x="16" y="86" fill="#737373" font-size="9">add 2 lines to &lt;project&gt;/CLAUDE.md:</text>
    <rect x="16" y="92" width="398" height="46" fill="#1a1a1a" stroke="#262626"/>
    <text x="22" y="106" fill="#e5e5e5" font-size="9">## Agent Teams</text>
    <text x="22" y="120" fill="#e5e5e5" font-size="9">When I say "run the X team on Y",</text>
    <text x="22" y="132" fill="#e5e5e5" font-size="9">read ~/.claude/agent-team-templates/PLAYBOOK.md and follow it.</text>

    <text x="16" y="158" fill="#e5e5e5" font-size="10" font-weight="600">invoke (any time):</text>
    <text x="16" y="174" fill="#facc15" font-size="10">"run the improvement team on regime-config bugs"</text>
    <text x="16" y="194" fill="#737373" font-size="9">pro: natural language · scoped to project</text>
  </g>

  <!-- OPTION B — Explicit per-invocation -->
  <g transform="translate(485,2284)">
    <rect width="430" height="206" fill="#0f0f0f" stroke="#262626"/>
    <text x="16" y="24" fill="#facc15" font-size="11" font-weight="600">OPTION B · EXPLICIT PER-INVOCATION</text>
    <text x="16" y="40" fill="#737373" font-size="10">works today · zero setup · friction every invoke</text>
    <line x1="16" y1="50" x2="414" y2="50" stroke="#1f1f1f"/>

    <text x="16" y="70" fill="#e5e5e5" font-size="10" font-weight="600">setup:</text>
    <text x="16" y="86" fill="#737373" font-size="9">none</text>

    <text x="16" y="110" fill="#e5e5e5" font-size="10" font-weight="600">invoke (each time):</text>
    <rect x="16" y="116" width="398" height="58" fill="#1a1a1a" stroke="#262626"/>
    <text x="22" y="132" fill="#e5e5e5" font-size="9">Follow ~/.claude/agent-team-templates/PLAYBOOK.md</text>
    <text x="22" y="146" fill="#e5e5e5" font-size="9">and run the improvement team on regime-config</text>
    <text x="22" y="160" fill="#e5e5e5" font-size="9">bugs in trading-bot/src/regime/</text>

    <text x="16" y="194" fill="#737373" font-size="9">pro: no setup · con: friction · easy to forget the prefix</text>
  </g>

  <!-- OPTION C — /team slash command (FUTURE) -->
  <g transform="translate(930,2284)">
    <rect width="430" height="206" fill="#0f0f0f" stroke="#262626" stroke-dasharray="3 3"/>
    <text x="16" y="24" fill="#facc15" font-size="11" font-weight="600">OPTION C · /team SLASH COMMAND   future</text>
    <text x="16" y="40" fill="#737373" font-size="10">not built yet · roadmap phase C · one-line invoke</text>
    <line x1="16" y1="50" x2="414" y2="50" stroke="#1f1f1f"/>

    <text x="16" y="70" fill="#e5e5e5" font-size="10" font-weight="600">when built:</text>
    <text x="16" y="86" fill="#737373" font-size="9">slash skill at ~/.claude/skills/team/ that</text>
    <text x="16" y="98" fill="#737373" font-size="9">loads PLAYBOOK.md and parses args</text>

    <text x="16" y="120" fill="#e5e5e5" font-size="10" font-weight="600">invoke (any project):</text>
    <rect x="16" y="126" width="398" height="44" fill="#1a1a1a" stroke="#262626"/>
    <text x="22" y="142" fill="#facc15" font-size="9">/team improvement regime-config bugs in</text>
    <text x="22" y="156" fill="#facc15" font-size="9">trading-bot/src/regime/</text>

    <text x="16" y="194" fill="#737373" font-size="9">pro: terse · cross-project · cons: not yet built</text>
  </g>

  <!-- Footnote: what gets stored where after invocation -->
  <g transform="translate(40,2510)">
  </g>

  <!-- ============ FOOTER ============ -->
  <text x="40" y="2498" fill="#404040" font-size="10">spec: docs/specs/2026-05-14-claude-code-agent-teams-design.md  ·  PLAYBOOK: ~/.claude/agent-team-templates/PLAYBOOK.md</text>
  <text x="1360" y="2498" fill="#404040" font-size="10" text-anchor="end">solid = sync · dashed = retry/response · yellow = patch / variant / recommended · circle = parallel worker</text>
</svg>
